Coordinates
version=1
nRows=13
nColumns=34
inDegrees=yes

Units are S.I. units (second, meters, Newtons, ...)
If the header above contains a line with 'inDegrees', this indicates whether rotational values are in degrees (yes) or radians (no).

endheader
time	pelvis_tilt	pelvis_list	pelvis_rotation	pelvis_tx	pelvis_ty	pelvis_tz	hip_flexion_r	hip_adduction_r	hip_rotation_r	knee_angle_r	ankle_angle_r	subtalar_angle_r	mtp_angle_r	hip_flexion_l	hip_adduction_l	hip_rotation_l	knee_angle_l	ankle_angle_l	subtalar_angle_l	mtp_angle_l	lumbar_extension	lumbar_bending	lumbar_rotation	arm_flex_r	arm_add_r	arm_rot_r	elbow_flex_r	pro_sup_r	arm_flex_l	arm_add_l	arm_rot_l	elbow_flex_l	pro_sup_l
      7.40000000	    -13.64495681	      0.07648864	      6.51998918	      0.28051580	      0.95319086	     -0.06056921	     15.56896966	     -2.45166694	     -4.42577916	      4.37019454	      2.97217931	     -3.35367660	      0.00000000	     17.42102235	     -0.54853056	      4.50657400	      7.21140027	      1.99554015	      0.88219914	      0.00000000	     -1.52164698	     -0.01002958	      1.62362046	     44.53901971	      5.42622590	     66.03970363	    121.56302597	     83.05520746	     56.61171643	      8.57811020	     73.10689779	    127.26268127	     70.57579229
      7.41666670	    -13.24423528	      0.01604843	      6.45513113	      0.28176270	      0.95300077	     -0.05980406	     14.61386772	     -2.24774073	     -4.18116520	      3.61164698	      3.02624790	     -3.25004142	      0.00000000	     16.57699142	     -0.70250108	      4.89265087	      6.60665788	      2.19978387	      0.76717074	      0.00000000	     -0.90328121	     -0.01873608	      1.78130586	     43.57317923	      5.51657992	     66.09151405	    121.64082976	     83.02981872	     55.85327198	      8.40429792	     73.19098716	    127.22897581	     70.26140329
      7.43333330	    -12.88121904	      0.02280617	      6.42883934	      0.28369482	      0.95360070	     -0.06015819	     13.65714557	     -2.16673834	     -3.93675199	      2.74219058	      2.98685397	     -3.06517737	      0.00000000	     15.73247599	     -0.74799516	      5.11445184	      5.91610142	      2.23066422	      0.66787303	      0.00000000	     -0.25388774	      0.01149914	      1.89730763	     42.55518399	      5.60145177	     66.01534808	    121.55686831	     82.99488279	     55.23651020	      8.25703483	     73.18243246	    127.18692472	     70.03737463
      7.45000000	    -12.11094187	      0.06274976	      6.37828791	      0.28617221	      0.95293801	     -0.06028784	     12.32162856	     -2.08186788	     -3.93041376	      1.84185029	      2.92456579	     -2.86186170	      0.00000000	     14.41668443	     -0.81548586	      5.33924746	      5.18134362	      2.10774655	      0.27783844	      0.00000000	     -0.06520668	      0.06400774	      1.98938155	     41.66996327	      5.86859468	     65.05170975	    121.41680436	     82.85973158	     54.56780594	      8.20347521	     72.62634380	    127.09467450	     69.36561766
      7.46666670	    -11.95291211	      0.01528919	      6.25093249	      0.28641770	      0.95108906	     -0.05915566	     11.82083987	     -1.93929394	     -3.74443488	      1.19924060	      3.19222551	     -2.84425975	      0.00000000	     13.87687805	     -0.94339344	      5.50371557	      4.64683287	      2.40130687	      0.15455252	      0.00000000	      0.68805807	      0.03936412	      2.04904305	     41.13898972	      6.08855616	     65.17331637	    121.59037151	     82.85304194	     54.55067341	      7.96590278	     72.49337065	    126.98878157	     69.25459821
      7.48333330	    -11.20667617	      0.08696664	      6.14812016	      0.28939754	      0.95590256	     -0.05921212	     10.48897924	     -1.88483357	     -3.52425279	      0.31034136	      3.04393612	     -2.50891491	      0.00000000	     12.48589923	     -0.99575925	      5.78104739	      3.78560522	      2.13995493	     -0.15735428	      0.00000000	      0.70499526	      0.08283490	      2.04071513	     39.98569079	      6.21435493	     64.52420686	    121.21849308	     82.71493306	     53.57611385	      7.64474886	     71.84418638	    126.49039066	     68.54899964
      7.50000000	    -11.01272510	      0.07263685	      6.11464709	      0.29087662	      0.95567126	     -0.05778799	     10.03326329	     -1.79834786	     -3.37114645	      0.00000000	      3.27944177	     -2.47050994	      0.00000000	     11.81496731	     -1.08725880	      5.99654869	      3.16608747	      2.37837398	     -0.25478411	      0.00000000	      1.20018499	      0.09782632	      2.23119766	     39.43843994	      6.09714797	     64.63535898	    121.08396695	     82.68898468	     53.15180480	      7.36723044	     71.89645012	    126.39425172	     68.38615252
      7.51666670	    -10.42903330	      0.16376732	      5.95391464	      0.29180078	      0.95628238	     -0.05715170	      9.25680166	     -1.78294588	     -3.70508834	      0.00000000	      4.10405563	     -1.16730562	      0.00000000	     10.67024674	     -1.12261471	      6.28071940	      2.44142038	      1.88404916	     -1.01153340	      0.00000000	      1.19033086	      0.09848910	      2.39873946	     39.04251452	      6.13493555	     64.62087580	    120.38908193	     81.54656357	     52.39139347	      7.05545803	     71.72900211	    126.39235982	     62.98909362
      7.53333330	    -10.23941125	      0.16687229	      5.87419580	      0.29195965	      0.95719676	     -0.05577613	      8.93954337	     -1.68630017	     -3.60605619	      0.00000000	      4.22470648	     -1.27396814	      0.00000000	     10.04942965	     -1.23176431	      6.27088786	      1.87726639	      2.09150085	     -1.03099691	      0.00000000	      1.59231498	      0.11169026	      2.56221459	     38.38174202	      6.07146978	     64.88538941	    120.45761624	     81.54127844	     51.78858196	      6.80396105	     71.82314705	    126.25932695	     62.93798684
      7.55000000	     -9.98466907	      0.23037379	      5.74159483	      0.29525082	      0.95826356	     -0.05697269	      8.50924083	     -1.68485607	     -3.40602370	      0.00000000	      4.32790981	     -1.26923657	      0.00000000	      9.31744693	     -1.25555662	      6.27164487	      1.29126495	      2.11808945	     -0.96503257	      0.00000000	      1.90002303	      0.11589679	      2.74701551	     37.67459246	      5.91300022	     65.10359505	    120.43314172	     81.52746668	     50.83794708	      6.64738530	     71.91587910	    126.14687761	     62.88115468
      7.56666670	     -9.72168542	      0.29681265	      5.63740460	      0.29657367	      0.95847359	     -0.05726127	      8.07841043	     -1.70707393	     -3.27610925	      0.00000000	      4.46927449	     -1.27409225	      0.00000000	      8.61942279	     -1.24665830	      6.17629904	      0.74024070	      2.04880862	     -0.89359786	      0.00000000	      2.11114941	      0.17968231	      2.92305416	     37.15105502	      5.72053541	     65.15468886	    120.34728601	     81.50108625	     49.90442778	      6.59430546	     71.88665944	    126.04440145	     62.81778292
      7.58333330	     -9.41717876	      0.35691659	      5.53376167	      0.29625299	      0.95848557	     -0.05675839	      7.66606423	     -1.71214419	     -3.12848541	      0.00000000	      4.53537594	     -1.23284046	      0.00000000	      7.95838357	     -1.24139483	      6.10686090	      0.23163997	      1.92442713	     -0.75907300	      0.00000000	      2.14632440	      0.19117680	      3.10106451	     36.70492337	      5.50574000	     65.17878293	    120.23390978	     81.46523468	     49.02864433	      6.54814805	     71.69437302	    125.92324373	     62.74208343
      7.60000000	     -9.29972028	      0.37214842	      5.62009795	      0.29770241	      0.95769513	     -0.05706004	      7.44370224	     -1.71013734	     -3.08708832	      0.00000000	      4.54153996	     -1.22380466	      0.00000000	      7.78585930	     -1.21889783	      6.06636612	      0.23532881	      1.90315739	     -0.74875038	      0.00000000	      2.37676567	      0.22926185	      3.13522296	     36.65941486	      5.52353046	     65.20178638	    120.26639111	     81.46163262	     48.90494613	      6.58575972	     71.66141900	    125.92804268	     62.73253766
